<svg width="56" height="56" viewBox="0 0 56 56" fill="none" xmlns="http://www.w3.org/2000/svg">
<rect x="0.5" y="0.5" width="55" height="55" rx="11.5" fill="#F1F7F9"/>
<rect x="0.5" y="0.5" width="55" height="55" rx="11.5" stroke="#DADBF1"/>
<path d="M43.833 33.8335C44.2997 33.8335 44.6663 34.2002 44.6663 34.6668V36.3335C44.6663 39.1002 42.433 41.3335 39.6663 41.3335C39.6663 38.5835 37.4163 36.3335 34.6663 36.3335C31.9163 36.3335 29.6663 38.5835 29.6663 41.3335H26.333C26.333 38.5835 24.083 36.3335 21.333 36.3335C18.583 36.3335 16.333 38.5835 16.333 41.3335C13.5663 41.3335 11.333 39.1002 11.333 36.3335V33.0002C11.333 32.0835 12.083 31.3335 12.9997 31.3335H28.833C31.133 31.3335 32.9997 29.4668 32.9997 27.1668V18.0002C32.9997 17.0835 33.7497 16.3335 34.6663 16.3335H36.0663C37.2663 16.3335 38.3663 16.9835 38.9663 18.0168L40.033 19.8835C40.183 20.1502 39.983 20.5002 39.6663 20.5002C37.3663 20.5002 35.4997 22.3668 35.4997 24.6668V29.6668C35.4997 31.9668 37.3663 33.8335 39.6663 33.8335H43.833Z" fill="#3BB77E"/>
<path d="M21.3333 44.6667C23.1743 44.6667 24.6667 43.1743 24.6667 41.3333C24.6667 39.4924 23.1743 38 21.3333 38C19.4924 38 18 39.4924 18 41.3333C18 43.1743 19.4924 44.6667 21.3333 44.6667Z" fill="#3BB77E"/>
<path d="M34.6663 44.6667C36.5073 44.6667 37.9997 43.1743 37.9997 41.3333C37.9997 39.4924 36.5073 38 34.6663 38C32.8254 38 31.333 39.4924 31.333 41.3333C31.333 43.1743 32.8254 44.6667 34.6663 44.6667Z" fill="#3BB77E"/>
<path d="M44.6667 28.8833V31.3333H39.6667C38.75 31.3333 38 30.5833 38 29.6667V24.6667C38 23.75 38.75 23 39.6667 23H41.8167L44.2333 27.2333C44.5167 27.7333 44.6667 28.3 44.6667 28.8833Z" fill="#3BB77E"/>
<path d="M29.8006 11.3335H17.484C14.5007 11.3335 12.0007 13.4668 11.4507 16.3002H18.734C19.3673 16.3002 19.8673 16.8168 19.8673 17.4502C19.8673 18.0835 19.3673 18.5835 18.734 18.5835H11.334V20.8835H15.6673C16.3007 20.8835 16.8173 21.4002 16.8173 22.0335C16.8173 22.6668 16.3007 23.1668 15.6673 23.1668H11.334V25.4668H12.6173C13.2507 25.4668 13.7673 25.9835 13.7673 26.6168C13.7673 27.2502 13.2507 27.7502 12.6173 27.7502H11.334V28.1335C11.334 29.0502 12.084 29.8002 13.0007 29.8002H28.2507C29.9506 29.8002 31.334 28.4168 31.334 26.7168V12.8668C31.334 12.0168 30.6507 11.3335 29.8006 11.3335Z" fill="#3BB77E"/>
<path d="M11.4503 16.3003H11.2003H9.56699C8.93366 16.3003 8.41699 16.817 8.41699 17.4503C8.41699 18.0836 8.93366 18.5836 9.56699 18.5836H11.0837H11.3337V17.4836C11.3337 17.0836 11.3837 16.6836 11.4503 16.3003Z" fill="#3BB77E"/>
<path d="M11.0837 20.8833H9.56699C8.93366 20.8833 8.41699 21.4 8.41699 22.0333C8.41699 22.6666 8.93366 23.1666 9.56699 23.1666H11.0837H11.3337V20.8833H11.0837Z" fill="#3BB77E"/>
<path d="M11.0837 25.4668H9.56699C8.93366 25.4668 8.41699 25.9835 8.41699 26.6168C8.41699 27.2501 8.93366 27.7501 9.56699 27.7501H11.0837H11.3337V25.4668H11.0837Z" fill="#3BB77E"/>
</svg>
