<svg width="41" height="40" viewBox="0 0 41 40" fill="none" xmlns="http://www.w3.org/2000/svg">
<g clip-path="url(#clip0_2992_1993)">
<g clip-path="url(#clip1_2992_1993)">
<path d="M6.686 5.78328C6.686 5.78328 7.2439 2.62335 9.66146 2.62335H12.6551V1.7929C12.6551 1.39833 12.8118 1.01992 13.0908 0.74092C13.3699 0.461917 13.7482 0.305176 14.1428 0.305176H25.9966C26.3913 0.305176 26.7696 0.461917 27.0487 0.74092C27.3276 1.01992 27.4844 1.39833 27.4844 1.7929V2.62335H30.4896C30.8502 2.62217 31.2068 2.69977 31.5343 2.8507C31.8619 3.00165 32.1524 3.2223 32.3859 3.49724C32.927 4.15962 33.2975 4.94452 33.4651 5.78328C33.4651 5.78328 34.3898 10.4604 35.2268 14.4659H32.4359L30.4949 5.57886L9.61325 5.56576L7.68397 14.4659H4.85253L6.686 5.78328ZM39.4159 20.4058C39.4159 21.1946 39.1028 21.951 38.5453 22.509C37.9878 23.0669 37.2316 23.3806 36.4429 23.3813L33.4651 35.2027C33.4651 35.2027 32.9072 38.3022 30.4896 38.3022H9.66146C7.2439 38.3022 6.686 35.2027 6.686 35.2027L3.66295 23.372C2.88115 23.3566 2.13694 23.0337 1.59172 22.4732C1.04651 21.9126 0.744256 21.1598 0.750523 20.3778C0.756788 19.5959 1.07107 18.8479 1.62519 18.2963C2.17932 17.7445 2.92862 17.4336 3.71055 17.4307H36.4405C37.2295 17.4307 37.9864 17.7441 38.5444 18.3021C39.1024 18.86 39.4158 19.6167 39.4159 20.4058ZM12.7395 32.7447L12.7315 29.3976L11.5687 24.8258C11.5117 24.4057 11.2901 24.0253 10.9527 23.7686C10.6153 23.5117 10.1896 23.3995 9.76947 23.4565C9.34929 23.5135 8.96897 23.7351 8.71217 24.0725C8.45538 24.4101 8.34315 24.8356 8.40016 25.2558L9.01221 29.4048L9.56981 33.1753C9.59808 33.3834 9.66707 33.5839 9.77283 33.7653C9.8786 33.9468 10.0191 34.1057 10.1862 34.2328C10.3534 34.36 10.544 34.4531 10.7471 34.5065C10.9502 34.5601 11.1618 34.5731 11.3699 34.5448C11.5781 34.5166 11.7786 34.4476 11.96 34.3418C12.1416 34.2361 12.3004 34.0956 12.4276 33.9284C12.5548 33.7613 12.6478 33.5707 12.7013 33.3676C12.7548 33.1645 12.7679 32.9528 12.7395 32.7447ZM18.6904 25.0184C18.6905 24.81 18.6494 24.6036 18.5698 24.4111C18.49 24.2185 18.3732 24.0436 18.2258 23.8962C18.0784 23.7488 17.9034 23.632 17.711 23.5522C17.5184 23.4726 17.3121 23.4315 17.1036 23.4315L17.092 23.434L17.0715 23.4315C16.8732 23.4316 16.6769 23.4713 16.4942 23.5484C16.3115 23.6255 16.1462 23.7385 16.0078 23.8805C15.8532 24.0273 15.73 24.204 15.6457 24.3997C15.5614 24.5955 15.5178 24.8064 15.5174 25.0195V32.9937C15.5145 33.2038 15.5535 33.4125 15.6319 33.6075C15.7103 33.8025 15.8267 33.98 15.9743 34.1296C16.122 34.2792 16.2978 34.3981 16.4916 34.4791C16.6855 34.5602 16.8936 34.6019 17.1037 34.6019C17.314 34.6019 17.5221 34.5602 17.716 34.4791C17.9098 34.3981 18.0856 34.2792 18.2333 34.1296C18.3809 33.98 18.4973 33.8025 18.5757 33.6075C18.6541 33.4125 18.6931 33.2038 18.6902 32.9937L18.6904 25.0184ZM24.6353 25.0184C24.6347 24.7015 24.5388 24.3921 24.3602 24.1304C24.1815 23.8687 23.9284 23.6667 23.6336 23.5506C23.4488 23.4715 23.2499 23.4306 23.0489 23.4306C22.8478 23.4306 22.649 23.4715 22.4642 23.5506C22.1693 23.6667 21.9162 23.8687 21.7375 24.1306C21.559 24.3923 21.4631 24.7017 21.4627 25.0186V32.9928C21.4627 33.2012 21.5038 33.4075 21.5834 33.5998C21.6631 33.7923 21.78 33.9672 21.9273 34.1144C22.0746 34.2617 22.2494 34.3787 22.4419 34.4583C22.6343 34.538 22.8406 34.5791 23.0489 34.5791C23.2572 34.5791 23.4634 34.538 23.6559 34.4583C23.8484 34.3787 24.0232 34.2617 24.1705 34.1144C24.3178 33.9672 24.4346 33.7923 24.5144 33.5998C24.5941 33.4075 24.6351 33.2012 24.6351 32.9928L24.6353 25.0184ZM31.7339 25.2564C31.7621 25.0483 31.7491 24.8367 31.6956 24.6338C31.6421 24.4307 31.549 24.2402 31.4219 24.0732C31.2947 23.9061 31.136 23.7657 30.9545 23.66C30.7731 23.5544 30.5727 23.4854 30.3646 23.4572C30.1566 23.4289 29.945 23.4419 29.742 23.4954C29.5389 23.549 29.3485 23.6419 29.1814 23.7691C29.0143 23.8963 28.8739 24.0551 28.7682 24.2366C28.6626 24.418 28.5936 24.6184 28.5654 24.8265L27.4005 29.364L27.3943 32.7447C27.366 32.9528 27.379 33.1643 27.4325 33.3673C27.486 33.5704 27.579 33.7608 27.7061 33.928C27.8333 34.095 27.9921 34.2355 28.1735 34.3412C28.3548 34.4469 28.5553 34.5159 28.7633 34.5441C28.9714 34.5724 29.183 34.5593 29.3861 34.5059C29.589 34.4523 29.7796 34.3594 29.9466 34.2322C30.1138 34.1051 30.2541 33.9463 30.3599 33.7649C30.4656 33.5834 30.5345 33.383 30.5628 33.1749L31.7339 25.2564Z" fill="#DA7656"/>
</g>
</g>
<defs>
<clipPath id="clip0_2992_1993">
<rect width="40.17" height="39.0528" fill="white"/>
</clipPath>
<clipPath id="clip1_2992_1993">
<rect width="40.1685" height="39.0528" fill="white" transform="translate(0.000732422)"/>
</clipPath>
</defs>
</svg>
