<svg width="48" height="48" viewBox="0 0 48 48" fill="none" xmlns="http://www.w3.org/2000/svg">
<g filter="url(#filter0_d_2877_20784)">
<rect x="4" width="40" height="40" rx="20" fill="white" fill-opacity="0.9" shape-rendering="crispEdges"/>
<rect x="4.5" y="0.5" width="39" height="39" rx="19.5" stroke="#EEEEEE" shape-rendering="crispEdges"/>
<path d="M23.05 22.95L21.2 24.8C20.81 25.19 20.19 25.19 19.79 24.81C19.68 24.7 19.57 24.6 19.46 24.49C18.43 23.45 17.5 22.36 16.67 21.22C15.85 20.08 15.19 18.94 14.71 17.81C14.24 16.67 14 15.58 14 14.54C14 13.86 14.12 13.21 14.36 12.61C14.6 12 14.98 11.44 15.51 10.94C16.15 10.31 16.85 10 17.59 10C17.87 10 18.15 10.06 18.4 10.18C18.66 10.3 18.89 10.48 19.07 10.74L21.39 14.01C21.57 14.26 21.7 14.49 21.79 14.71C21.88 14.92 21.93 15.13 21.93 15.32C21.93 15.56 21.86 15.8 21.72 16.03C21.59 16.26 21.4 16.5 21.16 16.74L20.4 17.53C20.29 17.64 20.24 17.77 20.24 17.93C20.24 18.01 20.25 18.08 20.27 18.16C20.3 18.24 20.33 18.3 20.35 18.36C20.53 18.69 20.84 19.12 21.28 19.64C21.73 20.16 22.21 20.69 22.73 21.22C22.83 21.32 22.94 21.42 23.04 21.52C23.44 21.91 23.45 22.55 23.05 22.95Z" fill="#FF4265"/>
<path d="M33.9701 26.33C33.9701 26.61 33.9201 26.9 33.8201 27.18C33.7901 27.26 33.7601 27.34 33.7201 27.42C33.5501 27.78 33.3301 28.12 33.0401 28.44C32.5501 28.98 32.0101 29.37 31.4001 29.62C31.3901 29.62 31.3801 29.63 31.3701 29.63C30.7801 29.87 30.1401 30 29.4501 30C28.4301 30 27.3401 29.76 26.1901 29.27C25.0401 28.78 23.8901 28.12 22.7501 27.29C22.3601 27 21.9701 26.71 21.6001 26.4L24.8701 23.13C25.1501 23.34 25.4001 23.5 25.6101 23.61C25.6601 23.63 25.7201 23.66 25.7901 23.69C25.8701 23.72 25.9501 23.73 26.0401 23.73C26.2101 23.73 26.3401 23.67 26.4501 23.56L27.2101 22.81C27.4601 22.56 27.7001 22.37 27.9301 22.25C28.1601 22.11 28.3901 22.04 28.6401 22.04C28.8301 22.04 29.0301 22.08 29.2501 22.17C29.4701 22.26 29.7001 22.39 29.9501 22.56L33.2601 24.91C33.5201 25.09 33.7001 25.3 33.8101 25.55C33.9101 25.8 33.9701 26.05 33.9701 26.33Z" fill="#FF4265"/>
</g>
<defs>
<filter id="filter0_d_2877_20784" x="0" y="0" width="48" height="48" filterUnits="userSpaceOnUse" color-interpolation-filters="sRGB">
<feFlood flood-opacity="0" result="BackgroundImageFix"/>
<feColorMatrix in="SourceAlpha" type="matrix" values="0 0 0 0 0 0 0 0 0 0 0 0 0 0 0 0 0 0 127 0" result="hardAlpha"/>
<feOffset dy="4"/>
<feGaussianBlur stdDeviation="2"/>
<feComposite in2="hardAlpha" operator="out"/>
<feColorMatrix type="matrix" values="0 0 0 0 0 0 0 0 0 0 0 0 0 0 0 0 0 0 0.03 0"/>
<feBlend mode="normal" in2="BackgroundImageFix" result="effect1_dropShadow_2877_20784"/>
<feBlend mode="normal" in="SourceGraphic" in2="effect1_dropShadow_2877_20784" result="shape"/>
</filter>
</defs>
</svg>
