<svg width="25" height="24" viewBox="0 0 25 24" fill="none" xmlns="http://www.w3.org/2000/svg">
<mask id="mask0_3472_4278" style="mask-type:alpha" maskUnits="userSpaceOnUse" x="0" y="0" width="25" height="24">
<rect x="0.575195" width="24" height="24" fill="#D9D9D9"/>
</mask>
<g mask="url(#mask0_3472_4278)">
<path d="M11.1752 16.2L18.2252 9.15L16.8252 7.75L11.1752 13.4L8.3252 10.55L6.9252 11.95L11.1752 16.2ZM5.5752 21C5.0252 21 4.55436 20.8042 4.1627 20.4125C3.77103 20.0208 3.5752 19.55 3.5752 19V5C3.5752 4.45 3.77103 3.97917 4.1627 3.5875C4.55436 3.19583 5.0252 3 5.5752 3H19.5752C20.1252 3 20.596 3.19583 20.9877 3.5875C21.3794 3.97917 21.5752 4.45 21.5752 5V19C21.5752 19.55 21.3794 20.0208 20.9877 20.4125C20.596 20.8042 20.1252 21 19.5752 21H5.5752Z" fill="#0D8C42"/>
</g>
</svg>
