<svg width="40" height="41" viewBox="0 0 40 41" fill="none" xmlns="http://www.w3.org/2000/svg">
<g clip-path="url(#clip0_2992_1926)">
<g clip-path="url(#clip1_2992_1926)">
<path d="M36.6667 25.5C36.6667 31.95 31.45 37.1667 25 37.1667L26.75 34.25" stroke="#DA7656" stroke-width="2" stroke-linecap="round" stroke-linejoin="round"/>
<path d="M3.33594 15.5007C3.33594 9.05065 8.5526 3.83398 15.0026 3.83398L13.2526 6.75065" stroke="#DA7656" stroke-width="2" stroke-linecap="round" stroke-linejoin="round"/>
<path d="M22.8359 7.91797L29.4693 11.7513L36.0359 7.93465" stroke="#DA7656" stroke-width="2" stroke-linecap="round" stroke-linejoin="round"/>
<path d="M29.4688 18.5344V11.7344" stroke="#DA7656" stroke-width="2" stroke-linecap="round" stroke-linejoin="round"/>
<path d="M27.9 4.18398L23.9 6.40058C23 6.90058 22.25 8.16723 22.25 9.20057V13.434C22.25 14.4673 22.9833 15.734 23.9 16.234L27.9 18.4506C28.75 18.934 30.15 18.934 31.0167 18.4506L35.0166 16.234C35.9166 15.734 36.6667 14.4673 36.6667 13.434V9.20057C36.6667 8.16723 35.9333 6.90058 35.0166 6.40058L31.0167 4.18398C30.1667 3.71732 28.7667 3.71732 27.9 4.18398Z" stroke="#DA7656" stroke-width="2" stroke-linecap="round" stroke-linejoin="round"/>
<path d="M3.92188 26.25L10.5385 30.0833L17.1219 26.2667" stroke="#DA7656" stroke-width="2" stroke-linecap="round" stroke-linejoin="round"/>
<path d="M10.5391 36.8664V30.0664" stroke="#DA7656" stroke-width="2" stroke-linecap="round" stroke-linejoin="round"/>
<path d="M8.98594 22.5158L4.98595 24.7324C4.08595 25.2324 3.33594 26.4991 3.33594 27.5324V31.7658C3.33594 32.7991 4.06928 34.0658 4.98595 34.5658L8.98594 36.7825C9.83594 37.2658 11.2359 37.2658 12.1026 36.7825L16.1026 34.5658C17.0026 34.0658 17.7526 32.7991 17.7526 31.7658V27.5324C17.7526 26.4991 17.0193 25.2324 16.1026 24.7324L12.1026 22.5158C11.2359 22.0491 9.83594 22.0491 8.98594 22.5158Z" stroke="#DA7656" stroke-width="2" stroke-linecap="round" stroke-linejoin="round"/>
</g>
</g>
<defs>
<clipPath id="clip0_2992_1926">
<rect width="40" height="41" fill="white"/>
</clipPath>
<clipPath id="clip1_2992_1926">
<rect width="40" height="41" fill="white"/>
</clipPath>
</defs>
</svg>
