<svg width="45" height="37" viewBox="0 0 45 37" fill="none" xmlns="http://www.w3.org/2000/svg">
<g clip-path="url(#clip0_2973_21354)">
<path d="M33.5755 0.818384V23.9483C32.5343 24.0255 31.5282 24.3589 30.647 24.9188V3.78093H5.75483C5.55919 3.78205 5.36524 3.74462 5.18406 3.67079C5.00288 3.59695 4.83802 3.48815 4.69889 3.35061C4.55976 3.21306 4.44909 3.04945 4.37319 2.86913C4.29728 2.6888 4.25765 2.4953 4.25653 2.29966C4.25765 2.10401 4.29728 1.91051 4.37319 1.73018C4.44909 1.54986 4.55976 1.38625 4.69889 1.2487C4.83802 1.11116 5.00288 1.00236 5.18406 0.928523C5.36524 0.854688 5.55919 0.817263 5.75483 0.818384H33.5755Z" fill="#DA7656"/>
<path d="M17.6221 31.8912C17.7567 31.4033 17.8226 30.899 17.8179 30.3929C17.8197 29.8936 17.7596 29.3961 17.6391 28.9116H27.7441C27.6249 29.3906 27.5649 29.8823 27.5653 30.3759C27.5606 30.882 27.6265 31.3863 27.7611 31.8742L17.6221 31.8912Z" fill="#DA7656"/>
<path d="M15.5108 12.737H1.48127C1.08841 12.737 0.711647 12.5809 0.433854 12.3031C0.156062 12.0253 0 11.6485 0 11.2557C0 10.8628 0.156062 10.4861 0.433854 10.2083C0.711647 9.93048 1.08841 9.77441 1.48127 9.77441H15.5108C15.9036 9.77441 16.2804 9.93048 16.5582 10.2083C16.836 10.4861 16.9921 10.8628 16.9921 11.2557C16.9921 11.6485 16.836 12.0253 16.5582 12.3031C16.2804 12.5809 15.9036 12.737 15.5108 12.737Z" fill="#DA7656"/>
<path d="M42.029 18.8065V20.6879H33.5755V17.7168H41.6799L42.029 18.8065Z" fill="#DA7656"/>
<path d="M21.3508 20.5773H3.40528C3.01242 20.5773 2.63566 20.4212 2.35787 20.1434C2.08007 19.8656 1.92401 19.4889 1.92401 19.096C1.92401 18.7032 2.08007 18.3264 2.35787 18.0486C2.63566 17.7708 3.01242 17.6147 3.40528 17.6147H21.3678C21.7607 17.6147 22.1374 17.7708 22.4152 18.0486C22.693 18.3264 22.8491 18.7032 22.8491 19.096C22.8491 19.4889 22.693 19.8656 22.4152 20.1434C22.1374 20.4212 21.7607 20.5773 21.3678 20.5773H21.3508Z" fill="#DA7656"/>
<path d="M17.6391 28.9117C17.2757 27.3647 16.3565 26.0053 15.0562 25.0918C13.7559 24.1784 12.1652 23.7747 10.5867 23.9576C9.00814 24.1405 7.5519 24.8972 6.49488 26.0837C5.43787 27.2703 4.85382 28.8039 4.85382 30.393C4.85382 31.9821 5.43787 33.5157 6.49488 34.7023C7.5519 35.8888 9.00814 36.6455 10.5867 36.8284C12.1652 37.0113 13.7559 36.6076 15.0562 35.6942C16.3565 34.7807 17.2757 33.4213 17.6391 31.8743C17.7737 31.3864 17.8396 30.8821 17.8349 30.376C17.8297 29.8817 17.764 29.39 17.6391 28.9117ZM14.8468 30.376C14.8496 30.9043 14.7209 31.4251 14.4722 31.8913C14.134 32.6102 13.5607 33.1923 12.8469 33.5413C12.1331 33.8902 11.3216 33.9852 10.5465 33.8106C9.77145 33.6359 9.07915 33.202 8.58405 32.5806C8.08894 31.9592 7.82065 31.1875 7.82352 30.393C7.80206 29.5828 8.06323 28.7904 8.56222 28.1517C9.06121 27.513 9.76691 27.0679 10.5582 26.8927C11.3496 26.7176 12.1772 26.8232 12.8991 27.1916C13.6211 27.56 14.1923 28.1682 14.5148 28.9117C14.7372 29.3736 14.8508 29.8804 14.8468 30.393V30.376Z" fill="#DA7656"/>
<path d="M40.0114 28.0604C39.5479 26.8531 38.7314 25.8135 37.6685 25.0771C36.6055 24.3406 35.3454 23.9414 34.0522 23.9315C33.902 23.9226 33.7513 23.9226 33.6011 23.9315C32.5495 24.0097 31.5342 24.3491 30.647 24.9191C29.9233 25.3597 29.2941 25.9394 28.7958 26.6247C28.2975 27.31 27.9401 28.0873 27.7441 28.9117C27.6249 29.3906 27.5649 29.8824 27.5653 30.3759C27.5606 30.882 27.6265 31.3863 27.7611 31.8742C28.1073 33.3643 28.9722 34.6827 30.2012 35.5935C31.4303 36.5043 32.9432 36.9483 34.4696 36.8459C35.9959 36.7435 37.4361 36.1015 38.5324 35.0347C39.6288 33.9679 40.31 32.5459 40.4541 31.0229C40.4541 30.8271 40.4541 30.6228 40.4541 30.41C40.4611 29.6054 40.3107 28.8072 40.0114 28.0604ZM34.0522 33.8918C33.3923 33.8931 32.7458 33.7053 32.1891 33.3508C31.6324 32.9963 31.1889 32.4898 30.9109 31.8912C30.6712 31.4285 30.5485 30.9141 30.5534 30.393C30.5635 29.5527 30.8779 28.7447 31.4383 28.1185C31.9987 27.4924 32.7671 27.0906 33.6011 26.9877C33.7478 26.9465 33.8998 26.9264 34.0522 26.9281C34.9802 26.9281 35.8702 27.2968 36.5263 27.9529C37.1825 28.6091 37.5511 29.499 37.5511 30.427C37.5511 31.355 37.1825 32.2449 36.5263 32.9011C35.8702 33.5572 34.9802 33.9259 34.0522 33.9259V33.8918Z" fill="#DA7656"/>
<path d="M45 18.568V31.0056H40.4541C40.4541 30.8098 40.4541 30.6055 40.4541 30.3926C40.4588 29.5938 40.3085 28.8016 40.0114 28.0601H42.0034V18.8064L41.714 17.7167L38.6493 8.09695L33.6096 7.9352V4.97266L40.8371 5.16846L45 18.568Z" fill="#DA7656"/>
</g>
<defs>
<clipPath id="clip0_2973_21354">
<rect width="45" height="36.0358" fill="white" transform="translate(0 0.818359)"/>
</clipPath>
</defs>
</svg>
