<svg width="30" height="27" viewBox="0 0 30 27" fill="none" xmlns="http://www.w3.org/2000/svg">
<path d="M27.2146 10.9053C28.5905 10.3894 28.7145 7.92458 27.4914 5.39993C26.2684 2.87528 24.1615 1.24685 22.7856 1.76274M27.2146 10.9053C25.8387 11.4212 23.7318 9.79277 22.5087 7.26812C21.2857 4.74347 21.4096 2.27862 22.7856 1.76274M27.2146 10.9053L7.2146 22.9053C5.83868 23.4212 3.73179 21.7928 2.50874 19.2681C1.2857 16.7435 1.40963 14.2786 2.78556 13.7627L22.7856 1.76274" stroke="#DA7656" stroke-width="2"/>
<path d="M19 15.8096C17.1843 15.0457 13.5644 12.2679 13.6098 7.26828M14.3333 18.6016C12.7778 17.8593 9.53333 15.105 9 10.0263" stroke="#DA7656" stroke-width="2"/>
<path d="M19.5735 16.334C20.3702 17.8409 21.1854 21.8172 18.3998 25.6673L17.0843 23.7793L13.6667 25.4144C13.6667 25.4144 16.0999 22.8498 14.9371 19.0007" stroke="#DA7656" stroke-width="2" stroke-linecap="round" stroke-linejoin="round"/>
</svg>
