<svg width="48" height="48" viewBox="0 0 48 48" fill="none" xmlns="http://www.w3.org/2000/svg">
<g filter="url(#filter0_d_2877_20804)">
<rect x="4" width="40" height="40" rx="20" fill="white" fill-opacity="0.9" shape-rendering="crispEdges"/>
<rect x="4.5" y="0.5" width="39" height="39" rx="19.5" stroke="#EEEEEE" shape-rendering="crispEdges"/>
<g clip-path="url(#clip0_2877_20804)">
<path d="M32.6202 16.7C31.5802 12.07 27.5402 10 24.0002 10C24.0002 10 24.0002 10 23.9902 10C20.4602 10 16.4302 12.07 15.3802 16.69C14.2002 21.85 17.3602 26.22 20.2202 28.98C21.2802 30 22.6402 30.51 24.0002 30.51C25.3602 30.51 26.7202 30 27.7702 28.98C30.6302 26.22 33.7902 21.86 32.6202 16.7ZM27.2802 17.53L23.2802 21.53C23.1302 21.68 22.9402 21.75 22.7502 21.75C22.5602 21.75 22.3702 21.68 22.2202 21.53L20.7202 20.03C20.4302 19.74 20.4302 19.26 20.7202 18.97C21.0102 18.68 21.4902 18.68 21.7802 18.97L22.7502 19.94L26.2202 16.47C26.5102 16.18 26.9902 16.18 27.2802 16.47C27.5702 16.76 27.5702 17.24 27.2802 17.53Z" fill="#F06A36"/>
</g>
</g>
<defs>
<filter id="filter0_d_2877_20804" x="0" y="0" width="48" height="48" filterUnits="userSpaceOnUse" color-interpolation-filters="sRGB">
<feFlood flood-opacity="0" result="BackgroundImageFix"/>
<feColorMatrix in="SourceAlpha" type="matrix" values="0 0 0 0 0 0 0 0 0 0 0 0 0 0 0 0 0 0 127 0" result="hardAlpha"/>
<feOffset dy="4"/>
<feGaussianBlur stdDeviation="2"/>
<feComposite in2="hardAlpha" operator="out"/>
<feColorMatrix type="matrix" values="0 0 0 0 0 0 0 0 0 0 0 0 0 0 0 0 0 0 0.03 0"/>
<feBlend mode="normal" in2="BackgroundImageFix" result="effect1_dropShadow_2877_20804"/>
<feBlend mode="normal" in="SourceGraphic" in2="effect1_dropShadow_2877_20804" result="shape"/>
</filter>
<clipPath id="clip0_2877_20804">
<rect width="24" height="24" fill="white" transform="translate(12 8)"/>
</clipPath>
</defs>
</svg>
