<svg width="45" height="46" viewBox="0 0 45 46" fill="none" xmlns="http://www.w3.org/2000/svg">
<path d="M23.095 12.1461C27.6601 12.1461 30.5737 10.6862 30.5737 9.68515V6.92627C28.8256 8.01611 25.9497 8.57686 23.095 8.57686C20.2403 8.57686 17.3654 8.01611 15.6182 6.92715V9.68076C15.6182 10.6862 18.5318 12.1461 23.095 12.1461Z" fill="#DA7656"/>
<path d="M23.095 6.89551C27.6601 6.89551 30.5737 5.43652 30.5737 4.43457C30.5737 3.43261 27.6601 1.97363 23.095 1.97363C18.53 1.97363 15.6182 3.42558 15.6182 4.43105C15.6182 5.43652 18.5318 6.89551 23.095 6.89551Z" fill="#DA7656"/>
<path d="M11.177 16.9757C12.9225 16.9757 14.4202 16.7603 15.6119 16.4414C15.9213 16.3578 16.2017 16.2655 16.468 16.1706C16.5674 16.1355 16.6631 16.1003 16.7563 16.0625C16.9895 15.9724 17.2177 15.87 17.44 15.7558C17.4963 15.7268 17.5412 15.6968 17.593 15.6679C17.7491 15.5807 17.899 15.4832 18.0421 15.3761C18.0799 15.348 18.1221 15.3199 18.1564 15.2882C18.2819 15.1859 18.3936 15.0676 18.4886 14.9367C18.5071 14.9102 18.5212 14.8848 18.5361 14.8584C18.6137 14.7577 18.6559 14.6341 18.6559 14.5068C18.6559 14.3796 18.6137 14.2561 18.5361 14.1553C18.5212 14.1289 18.5071 14.1034 18.4886 14.0771C18.3936 13.946 18.2819 13.8279 18.1564 13.7255C18.1221 13.6974 18.0799 13.6693 18.0421 13.6376C17.8985 13.531 17.7482 13.4336 17.5921 13.3458C17.5403 13.3168 17.4963 13.2869 17.4409 13.258C17.2183 13.1438 16.9897 13.0414 16.7563 12.9512C16.6631 12.9143 16.5674 12.8783 16.468 12.8431C16.2043 12.7473 15.9213 12.6559 15.6119 12.5724C14.4202 12.2524 12.9225 12.0371 11.177 12.0371C6.61371 12.0371 3.70013 13.4987 3.70013 14.5033C3.70013 15.508 6.61371 16.9757 11.177 16.9757Z" fill="#DA7656"/>
<path d="M43.7304 26.5207C43.6697 26.4285 43.5914 26.3492 43.5 26.2875C43.4086 26.2257 43.3059 26.1825 43.1978 26.1605C43.0897 26.1384 42.9783 26.138 42.87 26.159C42.7618 26.1801 42.6587 26.2223 42.5667 26.2833L19.6642 41.462L2.32075 33.6222C2.1176 33.5303 1.88629 33.523 1.67771 33.6017C1.46911 33.6804 1.30034 33.8387 1.20849 34.0419C1.11665 34.245 1.10927 34.4763 1.18797 34.6849C1.26668 34.8935 1.42502 35.0622 1.62817 35.1542L19.3944 43.1855C19.5034 43.2341 19.6213 43.2593 19.7407 43.2594C19.9055 43.2598 20.0668 43.2112 20.2038 43.1197L43.4948 27.6843C43.5868 27.6235 43.6659 27.5451 43.7276 27.4536C43.7892 27.3622 43.8322 27.2595 43.854 27.1514C43.876 27.0432 43.8763 26.9319 43.855 26.8236C43.8339 26.7154 43.7915 26.6125 43.7304 26.5207Z" fill="#DA7656"/>
<path d="M1.61932 31.4519L6.70555 33.8294L15.3258 37.8584L19.3486 39.7391C19.4801 39.8 19.6251 39.8261 19.7697 39.8148C19.9141 39.8036 20.0533 39.7554 20.1739 39.675L23.5726 37.3899L38.2424 27.5462L42.9051 24.4146C43.0289 24.3319 43.1286 24.2177 43.1938 24.0837C43.259 23.9499 43.2874 23.8009 43.276 23.6524C43.2646 23.5039 43.2139 23.361 43.1291 23.2386C43.0444 23.1161 42.9285 23.0185 42.7935 22.9556L37.7186 20.5825L30.5714 17.2427V12.145C28.8057 13.2472 25.8964 13.8246 23.0954 13.8246C22.1084 13.8234 21.1229 13.7506 20.1467 13.6066C20.2738 13.8907 20.3403 14.1981 20.3417 14.5093V18.1665L18.6622 19.2212V16.9746C18.4418 17.1108 18.2141 17.2345 17.9801 17.3456C17.8658 17.4009 17.7402 17.4501 17.6198 17.5019C17.4994 17.5538 17.3641 17.6144 17.2279 17.6663C17.0591 17.7305 16.8807 17.7885 16.7005 17.8421C16.6038 17.8728 16.5098 17.9063 16.4113 17.9362C16.2092 17.9968 15.9991 18.0513 15.7882 18.104C14.2813 18.474 12.7352 18.6602 11.1836 18.6587C8.38338 18.6587 5.47508 18.0794 3.70672 16.9763V19.7625C3.70672 20.768 6.62029 22.2287 11.1836 22.2287C12.2138 22.2322 13.2427 22.1513 14.2598 21.987L11.1994 23.9084H11.1801C8.32625 23.9084 5.45135 23.3475 3.7032 22.2578V25.0122C3.7032 25.6028 4.73767 26.342 6.50164 26.8579L6.26785 27.0082L1.52791 29.979C1.40009 30.0591 1.2962 30.1722 1.22713 30.3065C1.15806 30.4406 1.12636 30.5909 1.13534 30.7415C1.14433 30.8921 1.19368 31.0376 1.27821 31.1626C1.36274 31.2876 1.47935 31.3876 1.6158 31.4519H1.61932ZM19.6307 38.0138L16.922 36.7491C16.9342 36.7341 16.9413 36.7157 16.9545 36.7016C16.9967 36.6534 17.0476 36.6138 17.0924 36.5698C17.2487 36.4104 17.4199 36.2664 17.6039 36.14C17.6803 36.0883 17.7592 36.0405 17.8404 35.9968C18.0169 35.897 18.2023 35.8138 18.3941 35.7481C18.4767 35.7191 18.5567 35.6865 18.6411 35.6602C19.1751 35.5067 19.7404 35.4987 20.2785 35.6373C20.3541 35.6557 20.427 35.6813 20.5017 35.7041C20.6783 35.7589 20.8502 35.8276 21.0158 35.9097C21.0889 35.9466 21.1627 35.9828 21.233 36.024C21.4151 36.1333 21.587 36.2588 21.7463 36.3993C21.7814 36.4301 21.821 36.4547 21.8544 36.4872C21.8605 36.4934 21.8649 36.5013 21.8711 36.5075L19.6307 38.0138ZM37.7661 22.8026C37.7784 22.7438 37.7889 22.6857 37.803 22.6269C37.8136 22.5829 37.8364 22.539 37.8487 22.4959L40.7386 23.8441L38.0746 25.6328C38.0552 25.5897 38.0411 25.5448 38.0227 25.5009C37.9348 25.2832 37.8628 25.0593 37.8074 24.8312C37.788 24.7529 37.7688 24.6747 37.7538 24.5956C37.6975 24.306 37.668 24.0117 37.6659 23.7167C37.6685 23.4094 37.7022 23.1032 37.7661 22.8026ZM25.675 16.805L28.2493 18.0091C28.2344 18.0266 28.2255 18.0504 28.2107 18.068C28.157 18.1295 28.0938 18.1805 28.0348 18.2385C27.8863 18.3917 27.7239 18.5309 27.5497 18.6542C27.4688 18.7104 27.3845 18.7615 27.2992 18.8115C27.1213 18.9128 26.9349 18.9981 26.742 19.0665C26.6541 19.0972 26.575 19.1332 26.4871 19.1543C26.2011 19.2359 25.9055 19.2791 25.6082 19.2826C25.3462 19.2795 25.0855 19.2461 24.8313 19.1834C24.7557 19.1649 24.6827 19.1394 24.6098 19.1165C24.4302 19.0615 24.2555 18.9915 24.0877 18.9073C24.0182 18.8722 23.947 18.8388 23.8794 18.7984C23.6785 18.6799 23.49 18.5415 23.3169 18.3853C23.2985 18.3677 23.2764 18.3554 23.258 18.3378C23.258 18.3378 23.251 18.3281 23.2466 18.3237L25.675 16.805ZM21.7999 19.2413C21.8236 19.2677 21.8544 19.287 21.8782 19.3134C22.0901 19.5479 22.3234 19.7621 22.5751 19.9532C22.5839 19.9594 22.5917 19.9682 22.6014 19.9752C22.8602 20.1621 23.1359 20.3242 23.425 20.4594C23.4786 20.485 23.5304 20.5113 23.5849 20.535C23.8682 20.6597 24.1624 20.7573 24.4639 20.8269C24.5201 20.84 24.5773 20.8488 24.6335 20.8603C24.956 20.9267 25.2842 20.9616 25.6135 20.9649C25.8416 20.9637 26.0696 20.947 26.2955 20.9147C26.3693 20.9051 26.4405 20.8866 26.5135 20.8734C26.6638 20.8462 26.8132 20.8154 26.9591 20.775C27.0417 20.7522 27.1217 20.7249 27.2026 20.6977C27.3361 20.6528 27.4661 20.6045 27.5971 20.5491C27.678 20.5149 27.7563 20.4788 27.8345 20.441C27.9619 20.3787 28.0841 20.3109 28.2054 20.2388C28.2774 20.1959 28.3495 20.151 28.4198 20.1079C28.5482 20.02 28.6703 19.9322 28.7916 19.8319C28.8452 19.7888 28.9023 19.7493 28.9542 19.7037C29.2809 19.4221 29.5708 19.1004 29.8173 18.7465L36.2939 21.7734C36.2535 21.8982 36.236 22.0257 36.2061 22.1513C36.177 22.2621 36.148 22.3728 36.1252 22.4853C36.0375 22.8912 35.9906 23.305 35.9854 23.7203C35.9873 24.0105 36.0088 24.3003 36.0496 24.5877C36.0619 24.6756 36.0804 24.7635 36.0961 24.8513C36.1313 25.0526 36.1752 25.2513 36.2298 25.4472C36.2561 25.5404 36.2825 25.6337 36.3124 25.725C36.381 25.9339 36.4602 26.1393 36.5497 26.3403C36.5787 26.4044 36.6016 26.4703 36.6323 26.5328C36.642 26.5538 36.649 26.5749 36.6586 26.5951L23.2993 35.56C23.2755 35.5337 23.2457 35.5151 23.2211 35.4897C23.0071 35.2552 22.7717 35.0414 22.5179 34.8507C22.5138 34.848 22.51 34.8447 22.5065 34.841C22.249 34.6572 21.9747 34.498 21.6874 34.3656C21.6329 34.3391 21.5801 34.3119 21.5248 34.2882C21.2437 34.1669 20.9522 34.0713 20.6538 34.0025C20.5958 33.9894 20.5369 33.9806 20.478 33.9691C20.1597 33.9047 19.8359 33.8705 19.5112 33.8672C19.1371 33.8705 18.7645 33.9153 18.4002 34.0008C18.3423 34.014 18.2833 34.0228 18.2245 34.0377C17.8872 34.1265 17.56 34.2499 17.248 34.406C17.1883 34.4359 17.1302 34.4675 17.0723 34.5C16.7621 34.6676 16.4702 34.8671 16.2013 35.095C16.1714 35.1213 16.145 35.1513 16.1133 35.1776C15.8528 35.4142 15.6171 35.6769 15.4102 35.9616C15.3944 35.9828 15.3733 35.9977 15.3583 36.0188L8.13729 32.6438C8.17684 32.5207 8.19442 32.395 8.22517 32.2712C8.25419 32.1612 8.28231 32.0513 8.30428 31.9406C8.3909 31.5361 8.43683 31.1239 8.44139 30.7102C8.43668 30.2966 8.39104 29.8844 8.30516 29.4797C8.2867 29.3831 8.26648 29.2881 8.24276 29.1923C8.14834 28.7948 8.01619 28.4072 7.84813 28.0347C7.84373 28.0251 7.84285 28.0146 7.83845 28.0049L21.7999 19.2413ZM6.38475 28.9137C6.4032 28.9576 6.41726 29.0016 6.43397 29.0472C6.51071 29.2478 6.57355 29.4534 6.62205 29.6625C6.63963 29.7381 6.65809 29.8128 6.67216 29.8893C6.72422 30.1595 6.75186 30.434 6.75476 30.7093C6.75115 31.0149 6.71669 31.3194 6.65194 31.6181C6.64051 31.6743 6.63085 31.7315 6.61766 31.7885C6.60711 31.8308 6.58601 31.8712 6.5746 31.9125L3.72869 30.5828L6.38475 28.9137Z" fill="#DA7656"/>
<path d="M17.972 24.7775C17.8215 25.0871 17.7023 25.411 17.6161 25.7444C17.489 26.2126 17.457 26.7015 17.522 27.1822C17.5829 27.6269 17.7416 28.0526 17.987 28.4285C18.2398 28.8065 18.5841 29.1143 18.988 29.3232C19.3478 29.5054 19.7403 29.6138 20.1425 29.6423C20.5447 29.6708 20.9484 29.6189 21.3304 29.4894C21.9948 29.2591 22.6267 28.8109 23.1673 28.1869L25.6871 29.8348C25.3461 30.2224 25.0068 30.486 24.6746 30.6188C24.2351 30.7945 23.8414 30.82 23.5092 30.7066C23.1417 30.5309 22.7182 30.6671 22.4598 31.0397C22.3807 31.1381 22.3245 31.2527 22.2955 31.3754C22.2665 31.4981 22.2653 31.6258 22.2918 31.7491C22.3186 31.8626 22.3748 31.9671 22.4547 32.0521C22.5346 32.1371 22.6355 32.1996 22.7471 32.2334C23.1515 32.4011 23.5877 32.4781 24.0251 32.4589C24.4624 32.4398 24.8902 32.3249 25.2783 32.1226C25.9496 31.7761 26.54 31.2914 27.0107 30.7006L27.2014 30.8244C27.3094 30.8999 27.4336 30.9488 27.5641 30.967C27.6946 30.9852 27.8276 30.9721 27.952 30.929C28.1551 30.8559 28.329 30.719 28.4477 30.5388C28.563 30.3591 28.6221 30.1492 28.6173 29.9359C28.6145 29.7992 28.5777 29.6654 28.5105 29.5465C28.4431 29.4276 28.3472 29.3274 28.2315 29.2547L28.0205 29.1159C28.3432 28.389 28.4407 27.7219 28.3115 27.1295C28.1559 26.4167 27.8289 25.8656 27.3447 25.4938C27.0845 25.284 26.7934 25.1159 26.4816 24.9956C26.1213 24.8551 25.7371 24.7863 25.3505 24.7934H25.3461C24.9088 24.8211 24.4823 24.9409 24.0945 25.145C23.7212 25.335 23.3795 25.5814 23.0811 25.8753L20.5164 24.194C20.6981 24.1147 20.8893 24.0592 21.0851 24.0287C21.2575 24.0038 21.433 24.0106 21.6027 24.049C21.7883 24.0946 21.9677 24.1621 22.1371 24.2503C22.6355 24.4945 23.0442 24.2406 23.2314 23.8819C23.4213 23.5075 23.3324 23.112 22.9511 22.7394C22.2066 22.2771 21.4393 22.1417 20.6658 22.3429C20.0684 22.502 19.523 22.8148 19.0839 23.25L18.771 23.0513C18.6592 22.9786 18.5319 22.9327 18.3994 22.9174C18.2669 22.9022 18.1326 22.9179 18.0072 22.9635C17.5572 23.134 17.3129 23.5287 17.3542 24.0287C17.3712 24.1499 17.4144 24.266 17.4809 24.3688C17.5473 24.4715 17.6354 24.5586 17.7392 24.6238L17.972 24.7775ZM25.1316 26.4862C25.4832 26.4307 25.8699 26.5476 26.3436 26.8641L26.3761 26.8904C26.4419 26.9441 26.4992 27.0075 26.5458 27.0785C26.6223 27.1802 26.6798 27.2948 26.7154 27.4169C26.7567 27.6051 26.7632 27.7994 26.7348 27.99C26.7241 28.0742 26.7053 28.1573 26.6785 28.2378L24.4751 26.7929C24.6684 26.6431 24.8927 26.5384 25.1316 26.4862ZM19.3045 25.6521L21.8076 27.2938C21.6915 27.4046 21.5649 27.5038 21.4296 27.59C21.2124 27.7319 20.9754 27.8411 20.7265 27.9144C20.5898 27.957 20.4451 27.9673 20.3038 27.9443C20.153 27.9116 20.0068 27.8602 19.8687 27.7913C19.6791 27.684 19.5162 27.5351 19.3925 27.3558C19.2687 27.1764 19.1873 26.9714 19.1542 26.756C19.0952 26.4263 19.1445 26.0554 19.3045 25.6521Z" fill="#DA7656"/>
</svg>
