<svg width="542" height="540" viewBox="0 0 542 540" fill="none" xmlns="http://www.w3.org/2000/svg">
<circle cx="216.349" cy="432.089" r="107.229" transform="rotate(90 216.349 432.089)" fill="white" fill-opacity="0.1"/>
<circle cx="434.174" cy="214.716" r="107.826" transform="rotate(90 434.174 214.716)" fill="white" fill-opacity="0.1"/>
<path opacity="0.1" d="M109.121 -0.936562C109.121 13.2234 111.91 27.2446 117.328 40.3267C122.747 53.4088 130.69 65.2954 140.702 75.308C150.715 85.3206 162.601 93.263 175.683 98.6818C188.766 104.101 202.787 106.89 216.947 106.89C231.107 106.89 245.128 104.101 258.21 98.6817C271.292 93.263 283.179 85.3206 293.191 75.308C303.204 65.2954 311.146 53.4087 316.565 40.3267C321.984 27.2446 324.773 13.2233 324.773 -0.936594L216.947 -0.936566L109.121 -0.936562Z" fill="white"/>
<path opacity="0.1" d="M0.774971 322.731C14.9902 322.731 29.0662 319.932 42.1993 314.492C55.3324 309.052 67.2655 301.078 77.3172 291.027C87.3688 280.975 95.3422 269.042 100.782 255.909C106.222 242.776 109.022 228.7 109.022 214.484C109.022 200.269 106.222 186.193 100.782 173.06C95.3422 159.927 87.3688 147.994 77.3171 137.942C67.2655 127.891 55.3324 119.917 42.1993 114.477C29.0661 109.037 14.9901 106.237 0.774929 106.237L0.774962 214.484L0.774971 322.731Z" fill="white"/>
<rect opacity="0.2" x="325.547" y="106.305" width="216.421" height="216.424" transform="rotate(90 325.547 106.305)" fill="white"/>
<path d="M541.968 322.728L426.671 434.87L325.547 539.149L325.547 322.728L541.968 322.728Z" fill="white" fill-opacity="0.15"/>
<path d="M325.547 106.305L440.844 -5.83683L541.968 -110.116L541.968 106.305L325.547 106.305Z" fill="white" fill-opacity="0.15"/>
</svg>
