<svg width="41" height="52" viewBox="0 0 41 52" fill="none" xmlns="http://www.w3.org/2000/svg">
<g clip-path="url(#clip0_2992_2008)">
<g clip-path="url(#clip1_2992_2008)">
<g clip-path="url(#clip2_2992_2008)">
<path d="M36.8293 15.3409C38.8886 11.8687 36.2884 7.52187 32.3492 7.57726C32.4006 3.61144 28.0431 1.02015 24.5773 3.09672C23.6702 1.49586 21.9683 0.474121 20.0849 0.474121C18.2083 0.474121 16.5098 1.49382 15.6017 3.091C12.1282 1.02184 7.77848 3.61694 7.82985 7.57725C3.87902 7.52822 1.29719 11.8554 3.35626 15.3387C1.7558 16.24 0.73407 17.9389 0.73407 19.8255C0.73407 21.7137 1.75254 23.4142 3.34972 24.3179C1.33926 27.6959 3.7276 32.0806 7.83148 32.0806C7.82085 33.2297 8.21647 34.3615 8.93445 35.287C8.93 35.2859 8.9253 35.2851 8.92085 35.2842C6.1503 39.3938 3.15385 43.4115 1.48821 47.9146C1.45471 47.9815 1.52168 48.0401 1.58027 47.9983C3.48031 46.9019 5.54769 45.864 7.70719 44.8596C7.74903 44.8428 7.79925 44.8596 7.79925 44.9098C8.17592 46.8349 8.62789 48.7935 9.25564 50.8191C9.2724 50.8776 9.36445 50.8776 9.38959 50.8274C11.0794 46.2747 14.1185 42.2119 16.9102 38.0728C18.2372 39.1096 19.9909 39.5253 21.7829 38.8951C24.4193 42.7514 27.1686 46.5742 28.7495 50.8274C28.7663 50.8776 28.8584 50.8776 28.8751 50.8191C29.5028 48.7935 29.9633 46.8349 30.3315 44.9098C30.3315 44.8596 30.3901 44.8428 30.4235 44.8596C32.5915 45.864 34.6589 46.9019 36.5589 47.9983C36.6091 48.0402 36.6761 47.9815 36.6509 47.9146C35.1245 43.8464 32.5347 40.1641 29.997 36.4555C31.493 35.4794 32.3694 33.829 32.3484 32.0802C36.3 32.1593 38.8927 27.7602 36.8334 24.3158C40.3126 22.3444 40.3144 17.3075 36.8293 15.3409ZM35.4005 23.1313L34.9738 23.2258C34.9245 23.4714 34.4844 24.0242 34.9877 24.626C37.2113 27.089 34.9738 31.0249 31.6961 30.3326C30.8995 30.1349 30.5824 30.9532 30.4168 31.1014L30.6163 31.5032C31.2235 34.7963 27.3156 36.9263 24.8627 34.7072C24.285 34.2238 23.6667 34.6988 23.4722 34.7409L23.3856 35.1548C22.2794 38.3265 17.8408 38.2442 16.7861 35.152L16.6887 34.7253L16.2327 34.5552C15.9204 34.4391 15.573 34.5025 15.2959 34.7351C13.9448 35.9476 11.7159 35.9811 10.3572 34.4106C9.65101 33.5932 9.36001 32.4896 9.57336 31.4508C9.65672 31.1614 9.59133 30.8476 9.38943 30.6158L8.94477 30.176L8.46169 30.3371C5.19236 30.9974 2.9628 27.0962 5.2142 24.6006C5.42999 24.3416 5.49212 23.9893 5.37686 23.6811L5.15698 23.1861L4.74584 23.12C3.34482 22.6299 2.40809 21.3143 2.40809 19.8255C2.40809 18.3214 3.37099 16.9932 4.81122 16.5187C5.52481 16.2773 5.42719 15.5269 5.48557 15.3608L5.19377 15.0363C2.9458 12.5287 5.26536 8.63229 8.48213 9.32728C9.2789 9.52401 9.60115 8.69434 9.76216 8.5483L9.56273 8.14696C8.96811 4.9359 12.814 2.70648 15.2959 4.93462L15.3899 5.00696C15.6572 5.18639 15.9891 5.21866 16.2809 5.09156L16.7386 4.8586L16.7999 4.47935C17.2994 3.08201 18.6113 2.14814 20.0849 2.14814C21.5808 2.14814 22.9075 3.10449 23.3937 4.53001L23.4878 4.92564C23.7066 4.98233 24.2186 5.402 24.7899 5.01637L24.8855 4.94198C26.0079 3.92801 27.6344 3.75554 28.9357 4.51284C30.2133 5.25667 30.8959 6.76844 30.6065 8.20174C30.4018 8.90976 31.0787 9.26634 31.2367 9.48587L31.7214 9.32197C34.967 8.64793 37.1907 12.5752 35.017 15.0033C34.4844 15.5359 34.9048 16.1761 34.9288 16.3737L35.3752 16.5207C38.5527 17.5679 38.5656 22.0609 35.4005 23.1313Z" fill="#DA7656"/>
<path d="M20.0857 8.05664C13.582 8.05664 8.3089 13.3298 8.3089 19.8334C8.3089 26.3369 13.582 31.6101 20.0857 31.6101C26.5891 31.6101 31.8707 26.3369 31.8707 19.8334C31.8707 13.3298 26.5891 8.05664 20.0857 8.05664ZM27.669 18.1175L23.9609 21.7753C23.9442 21.7919 23.9442 21.8087 23.9442 21.8255L24.8566 26.9563C24.8649 27.0065 24.8231 27.0317 24.7812 27.0148L20.1526 24.6127C20.1359 24.6042 20.1191 24.6042 20.1024 24.6127L15.4988 27.0735C15.4654 27.0902 15.4151 27.0567 15.4234 27.0148L16.2772 21.8673C16.2772 21.8505 16.2689 21.8338 16.2605 21.8255L12.5023 18.2096C12.4772 18.176 12.4856 18.1258 12.5358 18.1175L17.6918 17.339C17.7085 17.3307 17.7169 17.3224 17.7253 17.3055L20.0103 12.6183C20.027 12.5764 20.0857 12.5764 20.1024 12.6183L22.4376 17.2805C22.446 17.2972 22.4628 17.3055 22.4795 17.3055L27.6439 18.0253C27.6857 18.0338 27.7024 18.084 27.669 18.1175Z" fill="#DA7656"/>
</g>
</g>
</g>
<defs>
<clipPath id="clip0_2992_2008">
<rect width="40.1797" height="50.8901" fill="white" transform="translate(0 0.222656)"/>
</clipPath>
<clipPath id="clip1_2992_2008">
<rect width="40.1797" height="50.8901" fill="white" transform="translate(0 0.222656)"/>
</clipPath>
<clipPath id="clip2_2992_2008">
<rect width="40.1764" height="50.8901" fill="white" transform="translate(0.00164795 0.222656)"/>
</clipPath>
</defs>
</svg>
