<svg width="45" height="49" viewBox="0 0 45 49" fill="none" xmlns="http://www.w3.org/2000/svg">
<g clip-path="url(#clip0_2973_21366)">
<path d="M45 27.9299C44.9966 32.0654 43.7668 36.107 41.466 39.5434C39.1652 42.9798 35.897 45.6566 32.0746 47.2353C28.2523 48.8139 24.0476 49.2235 19.9925 48.4121C15.9374 47.6007 12.214 45.6048 9.29337 42.6769C6.37275 39.7491 4.3861 36.0208 3.58474 31.9637C2.78338 27.9065 3.20331 23.7029 4.79141 19.8845C6.37951 16.066 9.06443 12.8044 12.5065 10.5122C15.9486 8.21992 19.9932 7.00005 24.1287 7.00686C29.6703 7.016 34.9815 9.22497 38.8952 13.1483C42.8088 17.0716 45.0046 22.3883 45 27.9299ZM14.9167 13.2803C12.7231 14.6705 10.8658 16.5307 9.47917 18.7265C9.59982 18.8041 9.69461 18.873 9.7894 18.9247C10.2203 19.1746 10.6511 19.4159 11.0734 19.6744C11.1423 19.7175 11.2457 19.8554 11.2285 19.8985C11.0648 20.2259 10.8666 20.5448 10.6856 20.8809C10.1169 20.5534 9.59982 20.269 9.10001 19.9674C8.91904 19.864 8.82425 19.8468 8.71222 20.0622C7.67448 22.1202 7.0564 24.364 6.89396 26.6631C6.89396 26.913 6.9629 26.9647 7.18695 26.9647H9.01383C9.23789 26.9647 9.30682 27.0423 9.30682 27.2577C9.30682 27.7001 9.30682 28.1396 9.30682 28.5762C9.30682 28.7916 9.2465 28.8778 9.01383 28.8692H6.89396C7.0184 31.3611 7.69228 33.7947 8.86734 35.9958L9.16895 35.8406C9.61705 35.5907 10.0307 35.3236 10.5133 35.0823C10.5539 35.0589 10.5999 35.0465 10.6468 35.0465C10.6937 35.0465 10.7398 35.0589 10.7804 35.0823C10.97 35.3667 11.1337 35.6683 11.3233 35.9958L9.47917 37.0902C10.8689 39.2998 12.7394 41.1674 14.9512 42.5536C15.2701 41.9935 15.563 41.4764 15.856 40.9766C15.925 40.8646 15.9681 40.7009 16.1576 40.8043L17.0797 41.3385C16.7695 41.8814 16.4937 42.3985 16.218 42.8897C16.0715 43.131 16.1318 43.2257 16.3645 43.3378C18.4065 44.3612 20.6278 44.9787 22.9051 45.156C23.155 45.156 23.2067 45.0785 23.1981 44.8544C23.1981 44.2426 23.1981 43.6394 23.1981 43.0275C23.1981 42.8121 23.2584 42.7259 23.491 42.7259C23.9334 42.7259 24.3729 42.7259 24.8095 42.7259C25.0508 42.7259 25.1111 42.8207 25.1111 43.0448C25.1111 43.6308 25.1111 44.2254 25.1111 44.7683C25.1035 44.8859 25.1035 45.0039 25.1111 45.1216C27.5738 44.992 29.9803 44.3368 32.1688 43.1999L32.005 42.8811C31.7551 42.4502 31.4966 42.0193 31.2553 41.5712C31.2122 41.5023 31.2036 41.3299 31.2553 41.3041C31.5569 41.1059 31.8844 40.9335 32.2118 40.7439L33.2804 42.5708C35.4834 41.1793 37.3472 39.3126 38.7352 37.1074L37.6063 36.4525C36.8997 36.0388 36.8997 36.0388 37.322 35.3236C37.5288 34.9617 37.5288 34.9617 37.8993 35.1771L39.3557 36.0388C39.3817 36.0065 39.4048 35.9719 39.4246 35.9354C40.5411 33.8242 41.2016 31.5019 41.3635 29.1191C41.3635 28.8864 41.2773 28.8519 41.0878 28.8606H39.1919C39.0023 28.8606 38.9076 28.8089 38.9162 28.5934C38.9162 28.1453 38.9162 27.7317 38.9162 27.2405C38.9162 27.0164 38.9937 26.9561 39.2092 26.9561C39.821 26.9561 40.4328 26.9561 41.036 26.9561C41.2773 26.9561 41.3463 26.8786 41.329 26.6459C41.1586 24.3346 40.5257 22.0811 39.4677 20.0191C39.3901 19.8554 39.3126 19.8382 39.1575 19.9329L38.2268 20.4672C37.5288 20.8722 37.5374 20.8722 37.1324 20.1829C36.8911 19.7865 36.8911 19.7951 37.2961 19.5624L38.7094 18.7007C38.6637 18.6055 38.6119 18.5134 38.5542 18.4249C37.2362 16.4175 35.5204 14.7018 33.5131 13.3837C33.2976 13.2459 33.2115 13.3062 33.108 13.5044C32.8237 14.0128 32.5221 14.5126 32.2463 15.0555C31.9706 14.9004 31.7207 14.7367 31.4535 14.616C31.1864 14.4954 31.1864 14.3661 31.3329 14.1334C31.6345 13.6509 31.9102 13.1424 32.1946 12.6599L32.1343 12.5737L32.005 12.4875C29.9304 11.4318 27.6655 10.8019 25.3438 10.6348C25.1283 10.6348 25.0766 10.7123 25.0766 10.9105C25.0766 11.531 25.0766 12.1514 25.0766 12.7633C25.0766 12.9615 25.0163 13.0563 24.8095 13.0477H23.4135C23.1894 13.0477 23.1291 12.9615 23.1291 12.7547C23.1291 12.1601 23.1291 11.5741 23.1291 10.9881C23.1291 10.8761 23.1291 10.764 23.1291 10.6262C20.6431 10.7603 18.2166 11.4367 16.0198 12.6082C16.2438 12.9959 16.4506 13.3406 16.6402 13.694C16.8298 14.0473 17.0366 14.2282 16.9763 14.4264C16.916 14.6246 16.5282 14.7194 16.3041 14.8918C16.0801 15.0641 15.9336 14.9779 15.8043 14.7453C15.5113 14.2886 15.227 13.806 14.9167 13.2717V13.2803Z" fill="#DA7656"/>
<path d="M0 35.7114C0.120643 35.7804 0.249904 35.8235 0.249904 35.8665C0.24774 36.0144 0.230414 36.1617 0.1982 36.306C0.146496 36.306 0.0517043 36.306 0.0430869 36.2199C0.0195052 36.0513 0.00512158 35.8816 0 35.7114Z" fill="#DA7656"/>
<path d="M24.0425 16.3135C24.37 16.7874 24.7836 17.1149 24.775 17.7526C24.775 20.5963 24.775 23.4401 24.775 26.2838C24.775 26.5423 24.775 26.7578 25.0422 26.8956C25.1077 26.9313 25.1616 26.9852 25.1973 27.0507C25.3351 27.473 25.6626 27.4385 26.0073 27.4385C27.6532 27.4385 29.3078 27.4385 30.9537 27.4385C31.5741 27.4385 31.9361 27.8177 32.4703 28.0934C32.0215 28.4855 31.4608 28.7267 30.8675 28.7828C29.0837 28.7828 27.2999 28.7828 25.5161 28.7828C25.3454 28.7908 25.182 28.8544 25.0508 28.9638C24.7719 29.2105 24.4064 29.3364 24.0348 29.3137C23.6631 29.2911 23.3157 29.1219 23.0688 28.8432C22.9364 28.7062 22.8343 28.5429 22.769 28.364C22.7037 28.185 22.6766 27.9943 22.6896 27.8043C22.7026 27.6142 22.7554 27.429 22.8444 27.2606C22.9335 27.0922 23.0569 26.9444 23.2066 26.8267C23.2874 26.7645 23.3511 26.6829 23.3918 26.5895C23.4325 26.4961 23.4488 26.3939 23.4393 26.2924C23.4393 23.4573 23.4393 20.6222 23.4393 17.7957C23.4814 17.2509 23.6923 16.7328 24.0425 16.3135Z" fill="#DA7656"/>
<path d="M30.7124 3.24139C30.7101 4.07181 30.3786 4.86744 29.7906 5.45383C29.2026 6.04022 28.4061 6.36951 27.5756 6.3695H20.6128C19.7832 6.3695 18.9875 6.03994 18.4009 5.4533C17.8142 4.86667 17.4847 4.07102 17.4847 3.24139C17.4847 2.41177 17.8142 1.61612 18.4009 1.02948C18.9875 0.442849 19.7832 0.113281 20.6128 0.113281L27.5756 0.113281C28.4061 0.113278 29.2026 0.442571 29.7906 1.02896C30.3786 1.61535 30.7101 2.41097 30.7124 3.24139Z" fill="#DA7656"/>
<path d="M38.9161 9.98877L42.2166 13.4357L38.9161 9.98877Z" fill="#DA7656"/>
<path d="M43.2938 14.5298C43.006 14.8105 42.6185 14.9655 42.2166 14.9607C42.0056 14.9608 41.7967 14.9181 41.6027 14.8351C41.4086 14.7522 41.2334 14.6307 41.0877 14.4781L37.7872 11.0311C37.6457 10.8829 37.5348 10.7083 37.4608 10.5172C37.3868 10.3261 37.3512 10.1223 37.356 9.91739C37.3608 9.71252 37.4059 9.5106 37.4888 9.32317C37.5716 9.13575 37.6906 8.96649 37.8389 8.82508C37.9826 8.67812 38.1542 8.56135 38.3436 8.48163C38.533 8.40191 38.7365 8.36084 38.942 8.36084C39.1475 8.36084 39.3509 8.40191 39.5403 8.48163C39.7298 8.56135 39.9013 8.67812 40.045 8.82508L43.3368 12.272C43.4847 12.4218 43.6011 12.5996 43.6791 12.7951C43.7571 12.9905 43.7953 13.1996 43.7913 13.41C43.7872 13.6204 43.7412 13.8279 43.6557 14.0202C43.5703 14.2125 43.4472 14.3858 43.2938 14.5298Z" fill="#DA7656"/>
</g>
<defs>
<clipPath id="clip0_2973_21366">
<rect width="45" height="48.7055" fill="white" transform="translate(0 0.112793)"/>
</clipPath>
</defs>
</svg>
