<svg width="40" height="41" viewBox="0 0 40 41" fill="none" xmlns="http://www.w3.org/2000/svg">
<g clip-path="url(#clip0_2992_1900)">
<path d="M25.0026 3.83398V20.5007C25.0026 22.334 23.5026 23.834 21.6693 23.834H3.33594V13.2006C4.5526 14.6506 6.41932 15.5507 8.48598 15.5007C10.1693 15.4673 11.6859 14.8173 12.8193 13.734C13.3359 13.3007 13.7693 12.7506 14.1026 12.1506C14.7026 11.134 15.0359 9.93394 15.0026 8.68394C14.9526 6.73394 14.086 5.01732 12.736 3.83398H25.0026Z" stroke="#DA7656" stroke-width="1.875" stroke-linecap="round" stroke-linejoin="round"/>
<path d="M36.6693 23.834V28.834C36.6693 31.6007 34.4359 33.834 31.6693 33.834H30.0026C30.0026 32.0007 28.5026 30.5007 26.6693 30.5007C24.8359 30.5007 23.3359 32.0007 23.3359 33.834H16.6693C16.6693 32.0007 15.1693 30.5007 13.3359 30.5007C11.5026 30.5007 10.0026 32.0007 10.0026 33.834H8.33594C5.56927 33.834 3.33594 31.6007 3.33594 28.834V23.834H21.6693C23.5026 23.834 25.0026 22.334 25.0026 20.5007V8.83398H28.0693C29.2693 8.83398 30.3693 9.484 30.9693 10.5173L33.8192 15.5007H31.6693C30.7526 15.5007 30.0026 16.2507 30.0026 17.1673V22.1673C30.0026 23.084 30.7526 23.834 31.6693 23.834H36.6693Z" stroke="#DA7656" stroke-width="1.875" stroke-linecap="round" stroke-linejoin="round"/>
<path d="M13.3333 37.1667C15.1743 37.1667 16.6667 35.6743 16.6667 33.8333C16.6667 31.9924 15.1743 30.5 13.3333 30.5C11.4924 30.5 10 31.9924 10 33.8333C10 35.6743 11.4924 37.1667 13.3333 37.1667Z" stroke="#DA7656" stroke-width="1.875" stroke-linecap="round" stroke-linejoin="round"/>
<path d="M26.6693 37.1667C28.5102 37.1667 30.0026 35.6743 30.0026 33.8333C30.0026 31.9924 28.5102 30.5 26.6693 30.5C24.8283 30.5 23.3359 31.9924 23.3359 33.8333C23.3359 35.6743 24.8283 37.1667 26.6693 37.1667Z" stroke="#DA7656" stroke-width="1.875" stroke-linecap="round" stroke-linejoin="round"/>
<path d="M36.6667 20.5V23.8333H31.6667C30.75 23.8333 30 23.0833 30 22.1667V17.1667C30 16.25 30.75 15.5 31.6667 15.5H33.8166L36.6667 20.5Z" stroke="#DA7656" stroke-width="1.875" stroke-linecap="round" stroke-linejoin="round"/>
<path d="M14.9993 8.68389C15.0326 9.93389 14.6993 11.1339 14.0993 12.1506C13.766 12.7506 13.3326 13.3006 12.816 13.7339C11.6826 14.8173 10.166 15.4673 8.48269 15.5006C6.41602 15.5506 4.54931 14.6506 3.33264 13.2006C3.09931 12.9506 2.89932 12.6673 2.71598 12.3839C2.06598 11.4006 1.69931 10.234 1.66598 8.98398C1.61598 6.88398 2.5493 4.96726 4.0493 3.71726C5.18263 2.78392 6.61593 2.2006 8.1826 2.16727C9.9326 2.13394 11.5327 2.76727 12.7327 3.83394C14.0827 5.01727 14.9493 6.73389 14.9993 8.68389Z" stroke="#DA7656" stroke-width="1.875" stroke-miterlimit="10" stroke-linecap="round" stroke-linejoin="round"/>
<path d="M5.73438 8.88395L7.41772 10.4839L10.901 7.11719" stroke="#DA7656" stroke-width="1.875" stroke-linecap="round" stroke-linejoin="round"/>
</g>
<defs>
<clipPath id="clip0_2992_1900">
<rect width="40" height="41" fill="white"/>
</clipPath>
</defs>
</svg>
