<svg width="40" height="41" viewBox="0 0 40 41" fill="none" xmlns="http://www.w3.org/2000/svg">
<g clip-path="url(#clip0_2992_1911)">
<path d="M30.0641 23.0846C29.3641 23.7679 28.9641 24.7513 29.0641 25.8013C29.2141 27.6013 30.8641 28.9179 32.6641 28.9179H35.8307V30.9013C35.8307 34.3513 33.0141 37.168 29.5641 37.168H10.4307C6.98073 37.168 4.16406 34.3513 4.16406 30.9013V19.6847C4.16406 16.2347 6.98073 13.418 10.4307 13.418H29.5641C33.0141 13.418 35.8307 16.2347 35.8307 19.6847V22.0847H32.4641C31.5307 22.0847 30.6807 22.4513 30.0641 23.0846Z" stroke="#DA7656" stroke-width="2" stroke-linecap="round" stroke-linejoin="round"/>
<path d="M4.16406 21.1841V13.5676C4.16406 11.5842 5.38073 9.8175 7.23073 9.1175L20.4641 4.1175C22.5307 3.33417 24.7474 4.86755 24.7474 7.08421V13.4175" stroke="#DA7656" stroke-width="2" stroke-linecap="round" stroke-linejoin="round"/>
<path d="M37.5954 23.7839V27.2173C37.5954 28.134 36.8621 28.8839 35.9287 28.9173H32.6621C30.8621 28.9173 29.2121 27.6006 29.0621 25.8006C28.9621 24.7506 29.3621 23.7673 30.0621 23.0839C30.6787 22.4506 31.5287 22.084 32.4621 22.084H35.9287C36.8621 22.1173 37.5954 22.8672 37.5954 23.7839Z" stroke="#DA7656" stroke-width="2" stroke-linecap="round" stroke-linejoin="round"/>
<path d="M11.6641 20.5H23.3307" stroke="#DA7656" stroke-width="2" stroke-linecap="round" stroke-linejoin="round"/>
</g>
<defs>
<clipPath id="clip0_2992_1911">
<rect width="40" height="41" fill="white"/>
</clipPath>
</defs>
</svg>
