<svg width="48" height="48" viewBox="0 0 48 48" fill="none" xmlns="http://www.w3.org/2000/svg">
<g filter="url(#filter0_d_2877_20822)">
<rect x="4" width="40" height="40" rx="20" fill="white" fill-opacity="0.9" shape-rendering="crispEdges"/>
<rect x="4.5" y="0.5" width="39" height="39" rx="19.5" stroke="#EEEEEE" shape-rendering="crispEdges"/>
<path d="M33.9798 19.41C33.6398 13.61 28.3698 9.14002 22.2998 10.14C18.1198 10.83 14.7698 14.22 14.1198 18.4C13.7398 20.82 14.2398 23.11 15.3298 25L14.4398 28.31C14.2398 29.06 14.9298 29.74 15.6698 29.53L18.9298 28.63C20.4098 29.5 22.1398 30 23.9898 30C29.6298 30 34.3098 25.03 33.9798 19.41ZM28.8798 23.72C28.7898 23.9 28.6798 24.07 28.5398 24.23C28.2898 24.5 28.0198 24.7 27.7198 24.82C27.4198 24.95 27.0898 25.01 26.7398 25.01C26.2298 25.01 25.6798 24.89 25.1098 24.64C24.5298 24.39 23.9598 24.06 23.3898 23.65C22.8098 23.23 22.2698 22.76 21.7498 22.25C21.2298 21.73 20.7698 21.18 20.3498 20.61C19.9398 20.04 19.6098 19.47 19.3698 18.9C19.1298 18.33 19.0098 17.78 19.0098 17.26C19.0098 16.92 19.0698 16.59 19.1898 16.29C19.3098 15.98 19.4998 15.7 19.7698 15.45C20.0898 15.13 20.4398 14.98 20.8098 14.98C20.9498 14.98 21.0898 15.01 21.2198 15.07C21.3498 15.13 21.4698 15.22 21.5598 15.35L22.7198 16.99C22.8098 17.12 22.8798 17.23 22.9198 17.34C22.9698 17.45 22.9898 17.55 22.9898 17.65C22.9898 17.77 22.9498 17.89 22.8798 18.01C22.8098 18.13 22.7198 18.25 22.5998 18.37L22.2198 18.77C22.1598 18.83 22.1398 18.89 22.1398 18.97C22.1398 19.01 22.1498 19.05 22.1598 19.09C22.1798 19.13 22.1898 19.16 22.1998 19.19C22.2898 19.36 22.4498 19.57 22.6698 19.83C22.8998 20.09 23.1398 20.36 23.3998 20.62C23.6698 20.89 23.9298 21.13 24.1998 21.36C24.4598 21.58 24.6798 21.73 24.8498 21.82C24.8798 21.83 24.9098 21.85 24.9398 21.86C24.9798 21.88 25.0198 21.88 25.0698 21.88C25.1598 21.88 25.2198 21.85 25.2798 21.79L25.6598 21.41C25.7898 21.28 25.9098 21.19 26.0198 21.13C26.1398 21.06 26.2498 21.02 26.3798 21.02C26.4798 21.02 26.5798 21.04 26.6898 21.09C26.7998 21.14 26.9198 21.2 27.0398 21.29L28.6998 22.47C28.8298 22.56 28.9198 22.67 28.9798 22.79C29.0298 22.92 29.0598 23.04 29.0598 23.18C28.9998 23.35 28.9598 23.54 28.8798 23.72Z" fill="#1EAF38"/>
</g>
<defs>
<filter id="filter0_d_2877_20822" x="0" y="0" width="48" height="48" filterUnits="userSpaceOnUse" color-interpolation-filters="sRGB">
<feFlood flood-opacity="0" result="BackgroundImageFix"/>
<feColorMatrix in="SourceAlpha" type="matrix" values="0 0 0 0 0 0 0 0 0 0 0 0 0 0 0 0 0 0 127 0" result="hardAlpha"/>
<feOffset dy="4"/>
<feGaussianBlur stdDeviation="2"/>
<feComposite in2="hardAlpha" operator="out"/>
<feColorMatrix type="matrix" values="0 0 0 0 0 0 0 0 0 0 0 0 0 0 0 0 0 0 0.03 0"/>
<feBlend mode="normal" in2="BackgroundImageFix" result="effect1_dropShadow_2877_20822"/>
<feBlend mode="normal" in="SourceGraphic" in2="effect1_dropShadow_2877_20822" result="shape"/>
</filter>
</defs>
</svg>
